<?xml version="1.0" encoding="UTF-8" standalone="no"?>
<svg width="220px" height="154px" viewBox="0 0 220 154" version="1.1" xmlns="http://www.w3.org/2000/svg" xmlns:xlink="http://www.w3.org/1999/xlink" xmlns:sketch="http://www.bohemiancoding.com/sketch/ns">
    <!-- Generator: Sketch 3.3.3 (12072) - http://www.bohemiancoding.com/sketch -->
    <title>80</title>
    <desc>Created with Sketch.</desc>
    <defs>
        <linearGradient x1="43.968169%" y1="25.7529075%" x2="50%" y2="62.5693987%" id="linearGradient-1">
            <stop stop-color="#FFA100" offset="0%"></stop>
            <stop stop-color="#FFB200" offset="100%"></stop>
        </linearGradient>
        <filter x="-50%" y="-50%" width="200%" height="200%" filterUnits="objectBoundingBox" id="filter-2">
            <feOffset dx="0" dy="1" in="SourceAlpha" result="shadowOffsetOuter1"></feOffset>
            <feGaussianBlur stdDeviation="1" in="shadowOffsetOuter1" result="shadowBlurOuter1"></feGaussianBlur>
            <feColorMatrix values="0 0 0 0 0   0 0 0 0 0   0 0 0 0 0  0 0 0 0.0560943161 0" in="shadowBlurOuter1" type="matrix" result="shadowMatrixOuter1"></feColorMatrix>
            <feOffset dx="0.5" dy="3" in="SourceAlpha" result="shadowOffsetOuter2"></feOffset>
            <feGaussianBlur stdDeviation="0" in="shadowOffsetOuter2" result="shadowBlurOuter2"></feGaussianBlur>
            <feColorMatrix values="0 0 0 0 0.960784314   0 0 0 0 0.894117647   0 0 0 0 0.760784314  0 0 0 0.7 0" in="shadowBlurOuter2" type="matrix" result="shadowMatrixOuter2"></feColorMatrix>
            <feMerge>
                <feMergeNode in="shadowMatrixOuter1"></feMergeNode>
                <feMergeNode in="shadowMatrixOuter2"></feMergeNode>
                <feMergeNode in="SourceGraphic"></feMergeNode>
            </feMerge>
        </filter>
    </defs>
    <g id="Page-1" stroke="none" stroke-width="1" fill="none" fill-rule="evenodd" sketch:type="MSPage">
        <g id="80" sketch:type="MSArtboardGroup">
            <g id="80%-copy" sketch:type="MSLayerGroup" transform="translate(1.000000, 1.000000)">
                <path d="M155.192519,0.369994802 L115.062013,60.9414428 L157.382903,158.10069 L148.681448,158.10069 L85.4245717,8.88584491 C85.4245717,8.88584491 73.2409882,7.05942548 64.3813116,8.17077466 C62.0148874,8.46761661 51.0018755,43.3972579 51.0018755,43.3972579 L39.7632281,11.2960402 C39.7632281,11.2960402 23.1272065,7.42572846 16.4807982,8.17077466 C14.8803534,8.35018063 10.6781616,12.8337089 10.3714379,17.6885526 C10.183729,20.6596204 14.1339765,23.3020503 13.1816455,26.5527145 C9.6308544,38.6729015 2.171549,51.0014075 2.171549,51.0014075 L51.0018755,162.111653 L219.65076,158.10069 L155.192519,0.369994802 Z" id="Path-15" fill="url(#linearGradient-1)" sketch:type="MSShapeGroup"></path>
                <path d="M102.509102,29.222426 L115.956013,60.5614298 L134.103344,32.4480987 L126.201105,8.96430414 L110.512986,8.96430395 L102.509102,29.222426 Z" id="Path-16" fill="url(#linearGradient-1)" sketch:type="MSShapeGroup"></path>
                <path d="M13.2424072,17.5457888 C13.2424072,16.2400491 13.4736284,15.0975441 13.9360779,14.1182393 C14.3985274,13.1389346 15.0377861,12.3228596 15.8538734,11.6699897 C16.6699607,11.0171199 17.608447,10.5138736 18.6693604,10.1602358 C19.7302739,9.806598 20.8319752,9.62978174 21.9744974,9.62978174 C23.7698894,9.62978174 25.2252232,9.90180675 26.3405425,10.4458649 C27.4558618,10.9899231 28.3263418,11.6699857 28.9520087,12.4860729 C29.5776757,13.3021602 29.9993144,14.159039 30.2169377,15.056735 C30.434561,15.954431 30.543371,16.7841073 30.543371,17.5457888 C30.543371,19.9940506 29.7272959,21.8574219 28.0951214,23.1359587 C26.4629468,24.4144954 24.4227592,25.0537542 21.9744974,25.0537542 C19.6350472,25.0537542 17.5948596,24.4144954 15.8538734,23.1359587 C14.1128872,21.8574219 13.2424072,19.9940506 13.2424072,17.5457888 L13.2424072,17.5457888 Z M2.71493393,16.4848806 C2.71493393,19.3139832 3.42219896,21.7894108 4.83675024,23.9112377 C6.25130152,26.0330646 8.34589412,27.4747972 11.1205909,28.2364787 L11.1205909,28.3996953 C7.6930243,29.2157826 5.04078042,30.8479326 3.16377968,33.2961945 C1.28677894,35.7444563 0.348292651,38.7911365 0.348292651,42.4363263 C0.348292651,45.537458 0.960348929,48.2033031 2.18447985,50.4339416 C3.40861076,52.6645802 5.04076084,54.5143503 7.08097903,55.9833074 C9.12119723,57.4522645 11.4334098,58.5267633 14.0176862,59.206836 C16.6019626,59.8869088 19.281409,60.22694 22.0561057,60.22694 C24.7219908,60.22694 27.3334309,59.8597063 29.8905044,59.1252277 C32.4475779,58.3907492 34.732588,57.2890479 36.7456033,55.8200907 C38.7586186,54.3511336 40.3771674,52.5013636 41.6012983,50.270725 C42.8254292,48.0400864 43.4374855,45.4014438 43.4374855,42.354718 C43.4374855,38.763934 42.5126005,35.7308551 40.6628026,33.2553903 C38.8130048,30.7799256 36.1743622,29.1613768 32.7467956,28.3996953 L32.7467956,28.2364787 C35.5214924,27.3115797 37.6024837,25.7882397 38.9898321,23.6664127 C40.3771805,21.5445858 41.0708442,19.0691582 41.0708442,16.2400556 C41.0708442,14.8255044 40.7444142,13.234158 40.0915444,11.4659689 C39.4386746,9.69777983 38.3641758,8.03842725 36.8680158,6.48786142 C35.3718558,4.9372956 33.3996744,3.61797429 30.9514126,2.52985791 C28.5031507,1.44174154 25.5108756,0.897691518 21.9744974,0.897691518 C19.6350472,0.897691518 17.3228346,1.22412153 15.0377902,1.87699136 C12.7527458,2.52986118 10.698957,3.50915122 8.87636207,4.81489087 C7.05376715,6.12063051 5.57123083,7.75278059 4.42870864,9.71139006 C3.28618645,11.6699995 2.71493393,13.9278071 2.71493393,16.4848806 L2.71493393,16.4848806 Z M11.9366741,41.8650681 C11.9366741,38.9271539 12.9159641,36.6829475 14.8745736,35.1323817 C16.833183,33.5818158 19.2270032,32.8065446 22.0561057,32.8065446 C23.4162512,32.8065446 24.6811675,33.0241646 25.8508926,33.4594111 C27.0206177,33.8946577 28.0543127,34.5203152 28.9520087,35.3364025 C29.8497048,36.1524898 30.5569698,37.1181785 31.0738251,38.2334978 C31.5906803,39.3488171 31.8491041,40.5865309 31.8491041,41.9466764 C31.8491041,43.3612277 31.6042816,44.6669477 31.1146292,45.8638757 C30.6249769,47.0608037 29.9313131,48.0808975 29.0336171,48.9241877 C28.1359211,49.7674779 27.102226,50.4203379 25.9325009,50.8827874 C24.7627758,51.3452369 23.470657,51.5764581 22.0561057,51.5764581 C20.6959603,51.5764581 19.3902402,51.3452369 18.1389064,50.8827874 C16.8875725,50.4203379 15.8130737,49.7674779 14.9153777,48.9241877 C14.0176817,48.0808975 13.2968154,47.0608037 12.7527573,45.8638757 C12.2086991,44.6669477 11.9366741,43.3340252 11.9366741,41.8650681 L11.9366741,41.8650681 Z M59.9223661,30.358295 C59.9223661,29.3789902 59.9359674,28.1956814 59.9631703,26.8083331 C59.9903732,25.4209847 60.0855819,23.9928534 60.2487994,22.5238963 C60.4120168,21.0549392 60.6840419,19.5996053 61.0648826,18.1578512 C61.4457233,16.716097 61.9761721,15.4239782 62.6562448,14.281456 C63.3363176,13.1389338 64.2067976,12.2140487 65.2677111,11.5067731 C66.3286245,10.7994975 67.6479458,10.4458649 69.2257146,10.4458649 C70.8034833,10.4458649 72.1364059,10.7994975 73.2245222,11.5067731 C74.3126386,12.2140487 75.2103212,13.1389338 75.9175968,14.281456 C76.6248724,15.4239782 77.1553212,16.716097 77.508959,18.1578512 C77.8625969,19.5996053 78.1346219,21.0549392 78.3250422,22.5238963 C78.5154626,23.9928534 78.6242726,25.4209847 78.6514755,26.8083331 C78.6786784,28.1956814 78.6922797,29.3789902 78.6922797,30.358295 C78.6922797,31.9904695 78.6378747,33.9626509 78.529063,36.2748982 C78.4202514,38.5871454 78.0802201,40.8177505 77.508959,42.9667804 C76.9376979,45.1158102 76.0128129,46.951979 74.7342762,48.475342 C73.4557394,49.9987049 71.6195706,50.7603749 69.2257146,50.7603749 C66.8862644,50.7603749 65.0908993,49.9987049 63.8395655,48.475342 C62.5882316,46.951979 61.6769478,45.1158102 61.1056867,42.9667804 C60.5344257,40.8177505 60.1943944,38.5871454 60.0855828,36.2748982 C59.9767711,33.9626509 59.9223661,31.9904695 59.9223661,30.358295 L59.9223661,30.358295 Z M48.3339847,30.358295 C48.3339847,36.0709059 48.891636,40.8449449 50.0069553,44.6805551 C51.1222745,48.5161653 52.6320134,51.5764467 54.536217,53.8614911 C56.4404207,56.1465355 58.6574245,57.7786855 61.1872951,58.7579903 C63.7171656,59.737295 66.396612,60.22694 69.2257146,60.22694 C72.109223,60.22694 74.8158718,59.737295 77.3457424,58.7579903 C79.875613,57.7786855 82.1062181,56.1465355 84.0376246,53.8614911 C85.9690312,51.5764467 87.4923712,48.5161653 88.6076905,44.6805551 C89.7230098,40.8449449 90.2806611,36.0709059 90.2806611,30.358295 C90.2806611,24.8089015 89.7230098,20.1436725 88.6076905,16.3624681 C87.4923712,12.5812637 85.9690312,9.54818484 84.0376246,7.26314046 C82.1062181,4.97809608 79.875613,3.34594601 77.3457424,2.36664127 C74.8158718,1.38733654 72.109223,0.897691518 69.2257146,0.897691518 C66.396612,0.897691518 63.7171656,1.38733654 61.1872951,2.36664127 C58.6574245,3.34594601 56.4404207,4.97809608 54.536217,7.26314046 C52.6320134,9.54818484 51.1222745,12.5812637 50.0069553,16.3624681 C48.891636,20.1436725 48.3339847,24.8089015 48.3339847,30.358295 L48.3339847,30.358295 Z M150.589209,44.3133177 C150.589209,43.3884187 150.630013,42.3547237 150.711622,41.2122015 C150.793231,40.0696793 151.024452,39.0087818 151.405293,38.029477 C151.786133,37.0501723 152.343785,36.2340973 153.078263,35.5812274 C153.812742,34.9283576 154.832836,34.6019276 156.138575,34.6019276 C157.335503,34.6019276 158.273989,34.9691614 158.954062,35.7036399 C159.634135,36.4381185 160.137381,37.3085985 160.463816,38.3151062 C160.790251,39.3216138 160.99427,40.3825113 161.075879,41.4978306 C161.157487,42.6131499 161.198291,43.5788387 161.198291,44.394926 C161.198291,45.2654191 161.157487,46.2583104 161.075879,47.3736296 C160.99427,48.4889489 160.77665,49.5498465 160.423012,50.5563541 C160.069374,51.5628618 159.525324,52.4197406 158.790846,53.1270162 C158.056367,53.8342918 157.063476,54.1879244 155.812142,54.1879244 C154.506402,54.1879244 153.49991,53.8342918 152.792634,53.1270162 C152.085358,52.4197406 151.568511,51.5628618 151.242076,50.5563541 C150.915641,49.5498465 150.725224,48.4753477 150.670818,47.3328255 C150.616412,46.1903033 150.589209,45.1838108 150.589209,44.3133177 L150.589209,44.3133177 Z M142.265161,44.2317093 C142.265161,46.4623479 142.496382,48.5569405 142.958832,50.51555 C143.421281,52.4741594 144.182951,54.1743158 145.243864,55.6160699 C146.304778,57.0578241 147.692105,58.1867279 149.405889,59.0028152 C151.119672,59.8189025 153.227866,60.22694 155.730534,60.22694 C158.12439,60.22694 160.19178,59.8325038 161.932766,59.0436194 C163.673752,58.254735 165.101883,57.1530337 166.217203,55.7384824 C167.332522,54.3239311 168.162198,52.6645786 168.706256,50.7603749 C169.250315,48.8561713 169.52234,46.7887812 169.52234,44.5581426 C169.52234,42.3275041 169.30472,40.2329115 168.869473,38.274302 C168.434227,36.3156925 167.686158,34.6155362 166.625244,33.173782 C165.564331,31.7320278 164.190604,30.5895228 162.504024,29.7462326 C160.817444,28.9029424 158.695649,28.4813036 156.138575,28.4813036 C153.744719,28.4813036 151.677329,28.8893411 149.936343,29.7054284 C148.195357,30.5215157 146.753624,31.6368182 145.611102,33.0513695 C144.46858,34.4659208 143.625302,36.1252734 143.081244,38.029477 C142.537186,39.9336807 142.265161,42.0010708 142.265161,44.2317093 L142.265161,44.2317093 Z M148.549001,0.244824959 L114.763157,60.8798066 L121.863081,60.8798066 L155.485709,0.244824959 L148.549001,0.244824959 Z M108.479316,17.2193555 C108.479316,16.2944566 108.52012,15.233559 108.601729,14.036631 C108.683338,12.839703 108.914559,11.7244004 109.2954,10.6906899 C109.67624,9.65697934 110.233892,8.7864993 110.96837,8.07922366 C111.702849,7.37194802 112.722942,7.0183155 114.028682,7.0183155 C115.22561,7.0183155 116.164096,7.39915052 116.844169,8.16083198 C117.524242,8.92251344 118.027488,9.84739848 118.353923,10.9355149 C118.680358,12.0236312 118.884377,13.152535 118.965985,14.3222601 C119.047594,15.4919852 119.088398,16.4848765 119.088398,17.3009638 C119.088398,18.1714569 119.047594,19.1371457 118.965985,20.1980592 C118.884377,21.2589726 118.666757,22.2654652 118.313119,23.217567 C117.959481,24.1696688 117.415431,24.9721426 116.680953,25.6250124 C115.946474,26.2778822 114.953583,26.6043123 113.702249,26.6043123 C112.396509,26.6043123 111.390017,26.2778822 110.682741,25.6250124 C109.975465,24.9721426 109.458618,24.1696688 109.132183,23.217567 C108.805748,22.2654652 108.615331,21.2453714 108.560925,20.157255 C108.506519,19.0691386 108.479316,18.0898486 108.479316,17.2193555 L108.479316,17.2193555 Z M100.155268,17.0561388 C100.155268,19.2867774 100.386489,21.3677687 100.848938,23.2991753 C101.311388,25.2305819 102.073058,26.8899344 103.133971,28.2772828 C104.194885,29.6646312 105.582212,30.7527312 107.295996,31.5416156 C109.009779,32.3305 111.117973,32.7249362 113.620641,32.7249362 C116.014497,32.7249362 118.081887,32.3441012 119.822873,31.5824198 C121.563859,30.8207383 122.99199,29.7598408 124.10731,28.3996953 C125.222629,27.0395498 126.052305,25.421001 126.596363,23.5440003 C127.140422,21.6669995 127.412447,19.6132107 127.412447,17.3825721 C127.412447,15.1519336 127.194827,13.0301385 126.75958,11.0171232 C126.324333,9.00410789 125.576265,7.24954656 124.515351,5.75338655 C123.454438,4.25722654 122.080711,3.07391773 120.394131,2.20342463 C118.707551,1.33293154 116.585756,0.897691518 114.028682,0.897691518 C111.634826,0.897691518 109.567436,1.31933029 107.82645,2.16262047 C106.085464,3.00591066 104.643731,4.16201697 103.501209,5.63097407 C102.358687,7.09993117 101.515409,8.81368875 100.971351,10.7722982 C100.427293,12.7309077 100.155268,14.8255003 100.155268,17.0561388 L100.155268,17.0561388 Z" id="Type-something" fill="#FFFFFF" filter="url(#filter-2)" sketch:type="MSShapeGroup"></path>
                <path d="M155.492389,0.239943287 L155.973816,3.30804445 L153.781372,3.30804445 L155.492389,0.239943287 Z" id="Path-39" fill="#F5E4C4" sketch:type="MSShapeGroup"></path>
                <path d="M114.795128,60.8769062 L115.295788,63.8833993 L117.106116,60.8769062 L114.795128,60.8769062 Z" id="Path-40" fill="#F5E4C4" sketch:type="MSShapeGroup"></path>
            </g>
        </g>
    </g>
</svg>