<?xml version="1.0" encoding="UTF-8" standalone="no"?>
<svg width="544px" height="346px" viewBox="0 0 544 346" version="1.1" xmlns="http://www.w3.org/2000/svg" xmlns:xlink="http://www.w3.org/1999/xlink" xmlns:sketch="http://www.bohemiancoding.com/sketch/ns">
    <!-- Generator: Sketch 3.3.3 (12072) - http://www.bohemiancoding.com/sketch -->
    <title>heroGraph</title>
    <desc>Created with Sketch.</desc>
    <defs>
        <linearGradient x1="43.968169%" y1="25.7529075%" x2="60.1424706%" y2="92.3149681%" id="linearGradient-1">
            <stop stop-color="#FFA100" offset="0%"></stop>
            <stop stop-color="#FFB200" offset="100%"></stop>
        </linearGradient>
    </defs>
    <g id="Page-1" stroke="none" stroke-width="1" fill="none" fill-rule="evenodd" sketch:type="MSPage">
        <g id="heroGraph" sketch:type="MSArtboardGroup">
            <g id="graph-+-2015-+-Line-+-2015-+-Line-Copy-2" sketch:type="MSLayerGroup" transform="translate(10.000000, 0.000000)">
                <g id="graph" transform="translate(0.151319, 0.807692)" sketch:type="MSShapeGroup">
                    <path d="M6.17490174,254.904267 L152.222768,175.314149 L180.079309,205.160444 L223.057973,182.875211 L250.516564,202.77274 L311.403004,137.508843 L373.483296,106.468697 L414.472207,137.508843 L467.797586,93.7342785 L483.715609,20.1134194 L537.040988,254.904267 L537.040988,336.484138 L35.3125317,336.484138 L6.17490174,254.904267 Z" id="Path-3" fill="url(#linearGradient-1)"></path>
                    <path d="M9.34868052,1.19230769 L9.34868052,301.192308 L9.34868052,301.692308 L10.3486805,301.692308 L10.3486805,301.192308 L10.3486805,1.19230769 L10.3486805,0.692307692 L9.34868052,0.692307692 L9.34868052,1.19230769 L9.34868052,1.19230769 Z M87.3486805,1.19230769 L87.3486805,301.192308 L87.3486805,301.692308 L88.3486805,301.692308 L88.3486805,301.192308 L88.3486805,1.19230769 L88.3486805,0.692307692 L87.3486805,0.692307692 L87.3486805,1.19230769 L87.3486805,1.19230769 Z M165.348681,1.19230769 L165.348681,301.192308 L165.348681,301.692308 L166.348681,301.692308 L166.348681,301.192308 L166.348681,1.19230769 L166.348681,0.692307692 L165.348681,0.692307692 L165.348681,1.19230769 L165.348681,1.19230769 Z M243.348681,1.19230769 L243.348681,301.192308 L243.348681,301.692308 L244.348681,301.692308 L244.348681,301.192308 L244.348681,1.19230769 L244.348681,0.692307692 L243.348681,0.692307692 L243.348681,1.19230769 L243.348681,1.19230769 Z M321.348681,1.19230769 L321.348681,301.192308 L321.348681,301.692308 L322.348681,301.692308 L322.348681,301.192308 L322.348681,1.19230769 L322.348681,0.692307692 L321.348681,0.692307692 L321.348681,1.19230769 L321.348681,1.19230769 Z M399.348681,1.19230769 L399.348681,301.192308 L399.348681,301.692308 L400.348681,301.692308 L400.348681,301.192308 L400.348681,1.19230769 L400.348681,0.692307692 L399.348681,0.692307692 L399.348681,1.19230769 L399.348681,1.19230769 Z M477.348681,1.19230769 L477.348681,301.192308 L477.348681,301.692308 L478.348681,301.692308 L478.348681,301.192308 L478.348681,1.19230769 L478.348681,0.692307692 L477.348681,0.692307692 L477.348681,1.19230769 L477.348681,1.19230769 Z" id="Line" fill="#FF9C00"></path>
                    <path d="M87.3486805,207.848454 L87.3486805,301.536162 L87.3486805,301.692308 L88.3486805,301.692308 L88.3486805,301.536162 L88.3486805,207.848454 L88.3486805,207.692308 L87.3486805,207.692308 L87.3486805,207.848454 L87.3486805,207.848454 Z M165.348681,188.880015 L165.348681,301.5046 L165.348681,301.692308 L166.348681,301.692308 L166.348681,301.5046 L166.348681,188.880015 L166.348681,188.692308 L165.348681,188.692308 L165.348681,188.880015 L165.348681,188.880015 Z M243.348681,201.858421 L243.348681,301.526195 L243.348681,301.692308 L244.348681,301.692308 L244.348681,301.526195 L244.348681,201.858421 L244.348681,201.692308 L243.348681,201.692308 L243.348681,201.858421 L243.348681,201.858421 Z M321.348681,126.983005 L321.348681,301.40161 L321.348681,301.692308 L322.348681,301.692308 L322.348681,301.40161 L322.348681,126.983005 L322.348681,126.692308 L321.348681,126.692308 L321.348681,126.983005 L321.348681,126.983005 Z M399.348681,119.994633 L399.348681,301.389982 L399.348681,301.692308 L400.348681,301.692308 L400.348681,301.389982 L400.348681,119.994633 L400.348681,119.692308 L399.348681,119.692308 L399.348681,119.994633 L399.348681,119.994633 Z M477.348681,301.228853 L478.348681,301.692308 L478.348681,23.1557628 L477.348681,22.6923077 L477.348681,301.228853 L477.348681,301.228853 Z" id="Line-Copy" fill="#F89800"></path>
                    <path d="M5.77695115,257.302218 L151.824818,176.916199 L180.47726,207.160444 L222.660022,183.681359 L249.720663,205.170691 L311.800955,138.712942 L372.289444,109.264599 L414.074256,139.906794 L466.364872,99.7029078 L480.441349,29.6909" id="Path-1-Copy-2" stroke="#F99800" stroke-width="10"></path>
                    <path d="M5.77695115,255.302218 L151.824818,174.916199 L180.47726,205.160444 L222.660022,181.681359 L249.720663,203.170691 L311.800955,136.712942 L372.289444,107.264599 L414.074256,137.906794 L466.364872,97.7029078 L478.069798,38.761861" id="Path-1-Copy" stroke="#F5E4C4" stroke-width="10"></path>
                    <path d="M3.7871982,250.924761 L152.620719,168.94694 L181.273161,198.793234 L223.853874,176.110051 L249.322712,197.201432 L309.0153,132.733436 L372.687395,101.29534 L413.676305,131.539585 L465.011931,90.9486244 L479.236051,23.6074549" id="Path-1" stroke="#FFFFFF" stroke-width="6"></path>
                    <g id="cap-start" transform="translate(0.807692, 247.741157)">
                        <path d="M7.66050778,5.99718078 C6.28654526,2.76032792 2.89766455,1.01711509 1.51044189,1.60595617 C0.123219236,2.19479726 0.146087885,4.78944858 1.96053587,8.41667538 C3.77498386,12.0439022 7.15084687,12.6531741 8.5152009,11.2888201 C8.5152009,11.2888201 8.99214761,9.13432761 7.66050778,5.99718078 Z" id="Oval-1-Copy" fill="#F5E4C4"></path>
                        <path d="M3.56994295,5.75192487 C4.64896821,5.75192487 7.8890329,3.81363436 8.93149447,3.29240358 C9.97395605,2.77117279 8.93149493,2.52900595 8.93149493,1.88082432 C8.93149493,0.153617437 4.92626613,0.0591693817 3.19905925,0.0591693817 C1.47185236,0.0591693817 0.591802358,1.19607901 0.591802358,2.92328589 C0.591802358,4.65049278 1.84273607,5.75192487 3.56994295,5.75192487 Z" id="Oval-1" fill="#FFFFFF"></path>
                    </g>
                    <g id="cap-end" transform="translate(474.576081, 18.145705)">
                        <path d="M3.96528266,23.842566 C3.93294367,23.8303974 5.16681662,10.7770384 4.95250866,7.76220611 C4.73138948,4.65155528 4.68942663,0.663237325 5.77259968,0.546603032 C5.87558511,0.535513731 6.93203269,0.934625443 8.23561894,2.31902006 C9.53920518,3.70341467 10.3861553,7.7622061 9.07114567,17.4969049 C8.76098762,19.79293 8.11183384,22.9891888 7.72111069,25.0279966 C7.33038753,27.0668043 4.48961785,24.0398649 3.96528266,23.842566 Z" id="Oval-1-Copy-3" fill="#F5E4C4"></path>
                        <path d="M3.6857799,24.4573517 C2.40041289,30.6058049 0.489784012,11.4347484 0.938153039,8.65474102 C1.17897313,7.16159232 2.05726537,3.32289326 2.4087871,1.97059604 C2.76030883,0.618298825 4.19270834,0.176934151 5.15772137,0.360399964 C6.1227344,0.543865776 6.82468138,1.02512848 7.02757846,2.83171795 C7.23047553,4.63830743 4.97114691,18.3088984 3.6857799,24.4573517 Z" id="Oval-1-Copy-2" fill="#FFFFFF"></path>
                    </g>
                </g>
                <g id="2015-+-Line" transform="translate(9.000000, 300.000000)" sketch:type="MSShapeGroup">
                    <path d="M1,-8.17124146e-14 L1,14" id="Line" stroke="#FFFFFF" stroke-linecap="square"></path>
                    <path d="M4.00585938,27.9991444 C3.83723874,27.9991444 3.66862063,28.0150948 3.5,28.046996 C3.33137937,28.0788972 3.16617919,28.1199124 3.00439453,28.1700429 C2.84260987,28.2201733 2.68652419,28.2771389 2.53613281,28.3409413 C2.38574144,28.4047437 2.24902405,28.4662665 2.12597656,28.5255116 C2.06217416,28.5574128 2.00065134,28.5790597 1.94140625,28.590453 C1.88216116,28.6018463 1.82747421,28.6075429 1.77734375,28.6075429 C1.59049386,28.6075429 1.44010474,28.5448807 1.32617188,28.4195546 C1.21223901,28.2942284 1.15527344,28.1495359 1.15527344,27.9854725 C1.15527344,27.8669824 1.19173141,27.7473547 1.26464844,27.6265858 C1.33756547,27.505817 1.46061111,27.399861 1.63378906,27.3087147 C1.81608164,27.2130111 2.01546116,27.1230055 2.23193359,27.0386952 C2.44840603,26.9543849 2.66943247,26.8814689 2.89501953,26.8199452 C3.1206066,26.7584215 3.34732959,26.7094311 3.57519531,26.6729725 C3.80306104,26.636514 4.02180885,26.618285 4.23144531,26.618285 C4.67350481,26.618285 5.08593559,26.6718327 5.46875,26.7789296 C5.85156441,26.8860265 6.18310407,27.0443908 6.46337891,27.2540272 C6.74365375,27.4636637 6.96354087,27.7200088 7.12304688,28.0230702 C7.28255288,28.3261316 7.36230469,28.6759002 7.36230469,29.0723866 C7.36230469,29.4050706 7.29622462,29.7480033 7.1640625,30.1011952 C7.03190038,30.4543871 6.85302847,30.808713 6.62744141,31.1641835 C6.40185434,31.519654 6.13867338,31.8739799 5.83789062,32.2271718 C5.53710787,32.5803636 5.21923996,32.9221571 4.88427734,33.2525624 C4.54931473,33.5829677 4.20638196,33.8996963 3.85546875,34.2027577 C3.50455554,34.5058191 3.1650407,34.7872291 2.83691406,35.046996 L6.79492188,35.046996 C6.90429742,35.046996 6.99999959,35.0663643 7.08203125,35.1051014 C7.16406291,35.1438386 7.2324216,35.1951076 7.28710938,35.25891 C7.34179715,35.3227124 7.38281236,35.3956284 7.41015625,35.47766 C7.43750014,35.5596917 7.45117188,35.6440008 7.45117188,35.7305897 C7.45117188,35.8126214 7.43750014,35.8946518 7.41015625,35.9766835 C7.38281236,36.0587151 7.34179715,36.1304918 7.28710938,36.1920155 C7.2324216,36.2535393 7.16406291,36.303669 7.08203125,36.3424061 C6.99999959,36.3811433 6.90429742,36.4005116 6.79492188,36.4005116 L1.65429688,36.4005116 C1.33072755,36.4005116 1.09147213,36.3218991 0.936523438,36.1646718 C0.781574746,36.0074444 0.704101562,35.819458 0.704101562,35.6007069 C0.704101562,35.4366436 0.746256089,35.2725827 0.830566406,35.1085194 C0.914876724,34.9444561 1.03678306,34.7895097 1.19628906,34.6436757 C1.24641952,34.5981025 1.31933546,34.5343011 1.41503906,34.4522694 C1.51074267,34.3702378 1.61669864,34.2768142 1.73291016,34.171996 C1.84912167,34.0671777 1.97330663,33.9566645 2.10546875,33.840453 C2.23763087,33.7242415 2.36865169,33.6068924 2.49853516,33.4884022 C2.62841862,33.3699121 2.75146426,33.2537023 2.86767578,33.1397694 C2.9838873,33.0258366 3.08756465,32.9232985 3.17871094,32.8321522 C3.51139489,32.5131402 3.82470556,32.1895757 4.11865234,31.8614491 C4.41259913,31.5333225 4.66894422,31.2131759 4.88769531,30.9009999 C5.10644641,30.5888238 5.27962176,30.2903242 5.40722656,30.0054921 C5.53483137,29.7206599 5.59863281,29.4643148 5.59863281,29.2364491 C5.59863281,29.03137 5.55419966,28.8513587 5.46533203,28.69641 C5.3764644,28.5414613 5.25911531,28.4127191 5.11328125,28.3101796 C4.96744719,28.20764 4.79882908,28.1301668 4.60742188,28.0777577 C4.41601467,28.0253486 4.21549584,27.9991444 4.00585938,27.9991444 L4.00585938,27.9991444 Z M12.6123047,27.8009022 C12.3434231,27.8009022 12.1132822,27.8510319 11.921875,27.9512929 C11.7304678,28.0515538 11.5664069,28.1905498 11.4296875,28.368285 C11.2929681,28.5460203 11.1835942,28.753375 11.1015625,28.9903554 C11.0195308,29.2273357 10.9557294,29.4825415 10.9101562,29.7559804 C10.8645831,30.0294192 10.8338217,30.3142471 10.8178711,30.6104725 C10.8019205,30.906698 10.7939453,31.2006404 10.7939453,31.4923085 C10.7939453,31.7839766 10.8019205,32.077919 10.8178711,32.3741444 C10.8338217,32.6703699 10.8645831,32.9551977 10.9101562,33.2286366 C10.9557294,33.5020755 11.0195308,33.7572813 11.1015625,33.9942616 C11.1835942,34.231242 11.2929681,34.4385967 11.4296875,34.6163319 C11.5664069,34.7940672 11.7304678,34.9330632 11.921875,35.0333241 C12.1132822,35.133585 12.3434231,35.1837147 12.6123047,35.1837147 C12.8766289,35.1837147 13.1056305,35.133585 13.2993164,35.0333241 C13.4930023,34.9330632 13.6582024,34.7940672 13.7949219,34.6163319 C13.9316413,34.4385967 14.0410152,34.231242 14.1230469,33.9942616 C14.2050785,33.7572813 14.26888,33.5020755 14.3144531,33.2286366 C14.3600263,32.9551977 14.3907877,32.6703699 14.4067383,32.3741444 C14.4226889,32.077919 14.4306641,31.7839766 14.4306641,31.4923085 C14.4306641,31.2006404 14.4226889,30.906698 14.4067383,30.6104725 C14.3907877,30.3142471 14.3600263,30.0294192 14.3144531,29.7559804 C14.26888,29.4825415 14.2050785,29.2273357 14.1230469,28.9903554 C14.0410152,28.753375 13.9316413,28.5460203 13.7949219,28.368285 C13.6582024,28.1905498 13.4930023,28.0515538 13.2993164,27.9512929 C13.1056305,27.8510319 12.8766289,27.8009022 12.6123047,27.8009022 L12.6123047,27.8009022 Z M12.6123047,26.5020741 C13.0771508,26.5020741 13.4895815,26.5647362 13.8496094,26.6900624 C14.2096372,26.8153885 14.5240872,26.9897032 14.7929688,27.2130116 C15.0618503,27.43632 15.2885733,27.7029189 15.4731445,28.0128163 C15.6577158,28.3227137 15.8069656,28.6633678 15.9208984,29.0347889 C16.0348313,29.4062101 16.1168617,29.7992725 16.1669922,30.2139882 C16.2171226,30.6287038 16.2421875,31.0548063 16.2421875,31.4923085 C16.2421875,31.9298107 16.2171226,32.3570525 16.1669922,32.7740468 C16.1168617,33.191041 16.0348313,33.5841035 15.9208984,33.953246 C15.8069656,34.3223884 15.6577158,34.6619033 15.4731445,34.9718007 C15.2885733,35.281698 15.0618503,35.5494363 14.7929688,35.7750233 C14.5240872,36.0006104 14.2096372,36.1760644 13.8496094,36.3013905 C13.4895815,36.4267167 13.0771508,36.4893788 12.6123047,36.4893788 C12.1474586,36.4893788 11.7338885,36.4267167 11.371582,36.3013905 C11.0092755,36.1760644 10.6936862,36.0006104 10.4248047,35.7750233 C10.1559231,35.5494363 9.92920014,35.281698 9.74462891,34.9718007 C9.56005767,34.6619033 9.41080786,34.3223884 9.296875,33.953246 C9.18294214,33.5841035 9.10091171,33.191041 9.05078125,32.7740468 C9.00065079,32.3570525 8.97558594,31.9298107 8.97558594,31.4923085 C8.97558594,31.0548063 9.00065079,30.6287038 9.05078125,30.2139882 C9.10091171,29.7992725 9.18294214,29.4062101 9.296875,29.0347889 C9.41080786,28.6633678 9.56005767,28.3227137 9.74462891,28.0128163 C9.92920014,27.7029189 10.1559231,27.43632 10.4248047,27.2130116 C10.6936862,26.9897032 11.0081362,26.8153885 11.3681641,26.6900624 C11.7281919,26.5647362 12.1429013,26.5020741 12.6123047,26.5020741 L12.6123047,26.5020741 Z M18.3955078,29.243285 C18.2861323,29.3070874 18.1767584,29.3389882 18.0673828,29.3389882 C17.9807938,29.3389882 17.8999027,29.3207592 17.824707,29.2843007 C17.7495113,29.2478421 17.6834313,29.1999911 17.6264648,29.140746 C17.5694984,29.0815009 17.5250653,29.0131422 17.4931641,28.9356679 C17.4612629,28.8581935 17.4453125,28.7784417 17.4453125,28.69641 C17.4453125,28.6052638 17.469238,28.5129795 17.5170898,28.4195546 C17.5649416,28.3261296 17.6435541,28.2475171 17.7529297,28.1837147 L20.2138672,26.7003163 C20.2867842,26.6593005 20.3642574,26.6296784 20.4462891,26.6114491 C20.5283207,26.5932198 20.6080725,26.5818267 20.6855469,26.5772694 C20.7949224,26.5772694 20.9008784,26.5954984 21.003418,26.6319569 C21.1059575,26.6684154 21.1971025,26.7242417 21.2768555,26.7994374 C21.3566085,26.8746331 21.4204099,26.9669173 21.4682617,27.0762929 C21.5161135,27.1856684 21.5400391,27.3155499 21.5400391,27.4659413 L21.546875,35.5391835 C21.546875,35.6850175 21.5206708,35.8114811 21.4682617,35.918578 C21.4158526,36.0256749 21.3474939,36.1145412 21.2631836,36.1851796 C21.1788733,36.2558179 21.0831711,36.3093656 20.9760742,36.3458241 C20.8689773,36.3822826 20.7607427,36.4005116 20.6513672,36.4005116 C20.5419916,36.4005116 20.433757,36.3822826 20.3266602,36.3458241 C20.2195633,36.3093656 20.1238611,36.2558179 20.0395508,36.1851796 C19.9552405,36.1145412 19.8880211,36.0256749 19.8378906,35.918578 C19.7877602,35.8114811 19.7626953,35.6850175 19.7626953,35.5391835 L19.7558594,28.3819569 L18.3955078,29.243285 Z M25.1767578,27.3975819 C25.1767578,27.1104711 25.2508131,26.9031164 25.3989258,26.7755116 C25.5470385,26.6479068 25.7714829,26.5841054 26.0722656,26.5841054 L30.734375,26.5841054 C30.8346359,26.5841054 30.9223629,26.6023343 30.9975586,26.6387929 C31.0727543,26.6752514 31.1354164,26.7242418 31.1855469,26.7857655 C31.2356773,26.8472893 31.2732746,26.9156479 31.2983398,26.9908436 C31.3234051,27.0660393 31.3359375,27.1446518 31.3359375,27.2266835 C31.3359375,27.3087151 31.3234051,27.3873276 31.2983398,27.4625233 C31.2732746,27.537719 31.2356773,27.6060777 31.1855469,27.6676014 C31.1354164,27.7291252 31.0727543,27.7781156 30.9975586,27.8145741 C30.9223629,27.8510326 30.8346359,27.8692616 30.734375,27.8692616 L26.6464844,27.8692616 L26.6054688,30.9796132 C26.9016942,30.6788304 27.2343732,30.4521074 27.6035156,30.2994374 C27.9726581,30.1467673 28.378253,30.0704335 28.8203125,30.0704335 C29.262372,30.0704335 29.664549,30.1513246 30.0268555,30.3131093 C30.389162,30.4748939 30.700194,30.7004776 30.9599609,30.9898671 C31.2197279,31.2792565 31.4202467,31.6221893 31.5615234,32.0186757 C31.7028002,32.415162 31.7734375,32.8481004 31.7734375,33.3175038 C31.7734375,33.8142511 31.6822926,34.2642791 31.5,34.6676014 C31.3177074,35.0709238 31.0670589,35.4149959 30.7480469,35.699828 C30.4290349,35.9846602 30.0496441,36.2045473 29.6098633,36.359496 C29.1700824,36.5144447 28.6949895,36.5919179 28.1845703,36.5919179 C27.861001,36.5919179 27.5476903,36.5634351 27.2446289,36.5064686 C26.9415675,36.4495022 26.6601575,36.3606359 26.4003906,36.2398671 C26.1406237,36.1190982 25.9082042,35.9675698 25.703125,35.7852772 C25.4980458,35.6029846 25.3317064,35.3887941 25.2041016,35.1426991 C25.1402992,35.0652248 25.095866,34.9888909 25.0708008,34.9136952 C25.0457356,34.8384995 25.0332031,34.7644443 25.0332031,34.6915272 C25.0332031,34.5320212 25.0867508,34.3953038 25.1938477,34.281371 C25.3009445,34.1674381 25.4296867,34.1104725 25.5800781,34.1104725 C25.6529952,34.1104725 25.7270504,34.1264229 25.8022461,34.1583241 C25.8774418,34.1902253 25.951497,34.240355 26.0244141,34.3087147 C26.2203786,34.645956 26.4983706,34.8988832 26.8583984,35.0675038 C27.2184263,35.2361244 27.6126281,35.3204335 28.0410156,35.3204335 C28.3600276,35.3204335 28.639159,35.2691645 28.878418,35.1666249 C29.117677,35.0640853 29.3170565,34.9205321 29.4765625,34.7359608 C29.6360685,34.5513896 29.7568355,34.3326418 29.8388672,34.0797108 C29.9208988,33.8267799 29.9619141,33.5476485 29.9619141,33.2423085 C29.9619141,32.9506404 29.9243168,32.6817628 29.8491211,32.4356679 C29.7739254,32.1895729 29.6645515,31.9776609 29.5209961,31.7999257 C29.3774407,31.6221904 29.203126,31.4843337 28.9980469,31.3863514 C28.7929677,31.2883692 28.5605482,31.2393788 28.3007812,31.2393788 C28.0865875,31.2393788 27.8940438,31.265583 27.7231445,31.3179921 C27.5522452,31.3704012 27.3995775,31.4376206 27.2651367,31.5196522 C27.1306959,31.6016839 27.0179041,31.6916895 26.9267578,31.7896718 C26.8356115,31.887654 26.7626956,31.9822169 26.7080078,32.0733632 C26.6350908,32.2328692 26.5222989,32.3570541 26.3696289,32.4459218 C26.2169589,32.5347894 26.0585946,32.5792225 25.8945312,32.5792225 C25.803385,32.5792225 25.7145187,32.5644115 25.6279297,32.5347889 C25.5413407,32.5051664 25.4650068,32.4595939 25.3989258,32.3980702 C25.3328447,32.3365465 25.2792971,32.2590733 25.2382812,32.1656483 C25.1972654,32.0722234 25.1767578,31.9594315 25.1767578,31.8272694 L25.1767578,27.3975819 Z" id="2015" fill="#FFFFFF"></path>
                </g>
                <g id="2015-+-Line-Copy" transform="translate(447.248175, 299.406176)" sketch:type="MSShapeGroup">
                    <path d="M30.7518248,0.593824228 L30.7518248,14.5938242" id="Line" stroke="#FFFFFF" stroke-linecap="square"></path>
                    <path d="M4.00585938,28.9991444 C3.83723874,28.9991444 3.66862063,29.0150948 3.5,29.046996 C3.33137937,29.0788972 3.16617919,29.1199124 3.00439453,29.1700429 C2.84260987,29.2201733 2.68652419,29.2771389 2.53613281,29.3409413 C2.38574144,29.4047437 2.24902405,29.4662665 2.12597656,29.5255116 C2.06217416,29.5574128 2.00065134,29.5790597 1.94140625,29.590453 C1.88216116,29.6018463 1.82747421,29.6075429 1.77734375,29.6075429 C1.59049386,29.6075429 1.44010474,29.5448807 1.32617188,29.4195546 C1.21223901,29.2942284 1.15527344,29.1495359 1.15527344,28.9854725 C1.15527344,28.8669824 1.19173141,28.7473547 1.26464844,28.6265858 C1.33756547,28.505817 1.46061111,28.399861 1.63378906,28.3087147 C1.81608164,28.2130111 2.01546116,28.1230055 2.23193359,28.0386952 C2.44840603,27.9543849 2.66943247,27.8814689 2.89501953,27.8199452 C3.1206066,27.7584215 3.34732959,27.7094311 3.57519531,27.6729725 C3.80306104,27.636514 4.02180885,27.618285 4.23144531,27.618285 C4.67350481,27.618285 5.08593559,27.6718327 5.46875,27.7789296 C5.85156441,27.8860265 6.18310407,28.0443908 6.46337891,28.2540272 C6.74365375,28.4636637 6.96354087,28.7200088 7.12304688,29.0230702 C7.28255288,29.3261316 7.36230469,29.6759002 7.36230469,30.0723866 C7.36230469,30.4050706 7.29622462,30.7480033 7.1640625,31.1011952 C7.03190038,31.4543871 6.85302847,31.808713 6.62744141,32.1641835 C6.40185434,32.519654 6.13867338,32.8739799 5.83789062,33.2271718 C5.53710787,33.5803636 5.21923996,33.9221571 4.88427734,34.2525624 C4.54931473,34.5829677 4.20638196,34.8996963 3.85546875,35.2027577 C3.50455554,35.5058191 3.1650407,35.7872291 2.83691406,36.046996 L6.79492188,36.046996 C6.90429742,36.046996 6.99999959,36.0663643 7.08203125,36.1051014 C7.16406291,36.1438386 7.2324216,36.1951076 7.28710938,36.25891 C7.34179715,36.3227124 7.38281236,36.3956284 7.41015625,36.47766 C7.43750014,36.5596917 7.45117188,36.6440008 7.45117188,36.7305897 C7.45117188,36.8126214 7.43750014,36.8946518 7.41015625,36.9766835 C7.38281236,37.0587151 7.34179715,37.1304918 7.28710938,37.1920155 C7.2324216,37.2535393 7.16406291,37.303669 7.08203125,37.3424061 C6.99999959,37.3811433 6.90429742,37.4005116 6.79492188,37.4005116 L1.65429688,37.4005116 C1.33072755,37.4005116 1.09147213,37.3218991 0.936523438,37.1646718 C0.781574746,37.0074444 0.704101562,36.819458 0.704101562,36.6007069 C0.704101562,36.4366436 0.746256089,36.2725827 0.830566406,36.1085194 C0.914876724,35.9444561 1.03678306,35.7895097 1.19628906,35.6436757 C1.24641952,35.5981025 1.31933546,35.5343011 1.41503906,35.4522694 C1.51074267,35.3702378 1.61669864,35.2768142 1.73291016,35.171996 C1.84912167,35.0671777 1.97330663,34.9566645 2.10546875,34.840453 C2.23763087,34.7242415 2.36865169,34.6068924 2.49853516,34.4884022 C2.62841862,34.3699121 2.75146426,34.2537023 2.86767578,34.1397694 C2.9838873,34.0258366 3.08756465,33.9232985 3.17871094,33.8321522 C3.51139489,33.5131402 3.82470556,33.1895757 4.11865234,32.8614491 C4.41259913,32.5333225 4.66894422,32.2131759 4.88769531,31.9009999 C5.10644641,31.5888238 5.27962176,31.2903242 5.40722656,31.0054921 C5.53483137,30.7206599 5.59863281,30.4643148 5.59863281,30.2364491 C5.59863281,30.03137 5.55419966,29.8513587 5.46533203,29.69641 C5.3764644,29.5414613 5.25911531,29.4127191 5.11328125,29.3101796 C4.96744719,29.20764 4.79882908,29.1301668 4.60742188,29.0777577 C4.41601467,29.0253486 4.21549584,28.9991444 4.00585938,28.9991444 L4.00585938,28.9991444 Z M12.6123047,28.8009022 C12.3434231,28.8009022 12.1132822,28.8510319 11.921875,28.9512929 C11.7304678,29.0515538 11.5664069,29.1905498 11.4296875,29.368285 C11.2929681,29.5460203 11.1835942,29.753375 11.1015625,29.9903554 C11.0195308,30.2273357 10.9557294,30.4825415 10.9101562,30.7559804 C10.8645831,31.0294192 10.8338217,31.3142471 10.8178711,31.6104725 C10.8019205,31.906698 10.7939453,32.2006404 10.7939453,32.4923085 C10.7939453,32.7839766 10.8019205,33.077919 10.8178711,33.3741444 C10.8338217,33.6703699 10.8645831,33.9551977 10.9101562,34.2286366 C10.9557294,34.5020755 11.0195308,34.7572813 11.1015625,34.9942616 C11.1835942,35.231242 11.2929681,35.4385967 11.4296875,35.6163319 C11.5664069,35.7940672 11.7304678,35.9330632 11.921875,36.0333241 C12.1132822,36.133585 12.3434231,36.1837147 12.6123047,36.1837147 C12.8766289,36.1837147 13.1056305,36.133585 13.2993164,36.0333241 C13.4930023,35.9330632 13.6582024,35.7940672 13.7949219,35.6163319 C13.9316413,35.4385967 14.0410152,35.231242 14.1230469,34.9942616 C14.2050785,34.7572813 14.26888,34.5020755 14.3144531,34.2286366 C14.3600263,33.9551977 14.3907877,33.6703699 14.4067383,33.3741444 C14.4226889,33.077919 14.4306641,32.7839766 14.4306641,32.4923085 C14.4306641,32.2006404 14.4226889,31.906698 14.4067383,31.6104725 C14.3907877,31.3142471 14.3600263,31.0294192 14.3144531,30.7559804 C14.26888,30.4825415 14.2050785,30.2273357 14.1230469,29.9903554 C14.0410152,29.753375 13.9316413,29.5460203 13.7949219,29.368285 C13.6582024,29.1905498 13.4930023,29.0515538 13.2993164,28.9512929 C13.1056305,28.8510319 12.8766289,28.8009022 12.6123047,28.8009022 L12.6123047,28.8009022 Z M12.6123047,27.5020741 C13.0771508,27.5020741 13.4895815,27.5647362 13.8496094,27.6900624 C14.2096372,27.8153885 14.5240872,27.9897032 14.7929688,28.2130116 C15.0618503,28.43632 15.2885733,28.7029189 15.4731445,29.0128163 C15.6577158,29.3227137 15.8069656,29.6633678 15.9208984,30.0347889 C16.0348313,30.4062101 16.1168617,30.7992725 16.1669922,31.2139882 C16.2171226,31.6287038 16.2421875,32.0548063 16.2421875,32.4923085 C16.2421875,32.9298107 16.2171226,33.3570525 16.1669922,33.7740468 C16.1168617,34.191041 16.0348313,34.5841035 15.9208984,34.953246 C15.8069656,35.3223884 15.6577158,35.6619033 15.4731445,35.9718007 C15.2885733,36.281698 15.0618503,36.5494363 14.7929688,36.7750233 C14.5240872,37.0006104 14.2096372,37.1760644 13.8496094,37.3013905 C13.4895815,37.4267167 13.0771508,37.4893788 12.6123047,37.4893788 C12.1474586,37.4893788 11.7338885,37.4267167 11.371582,37.3013905 C11.0092755,37.1760644 10.6936862,37.0006104 10.4248047,36.7750233 C10.1559231,36.5494363 9.92920014,36.281698 9.74462891,35.9718007 C9.56005767,35.6619033 9.41080786,35.3223884 9.296875,34.953246 C9.18294214,34.5841035 9.10091171,34.191041 9.05078125,33.7740468 C9.00065079,33.3570525 8.97558594,32.9298107 8.97558594,32.4923085 C8.97558594,32.0548063 9.00065079,31.6287038 9.05078125,31.2139882 C9.10091171,30.7992725 9.18294214,30.4062101 9.296875,30.0347889 C9.41080786,29.6633678 9.56005767,29.3227137 9.74462891,29.0128163 C9.92920014,28.7029189 10.1559231,28.43632 10.4248047,28.2130116 C10.6936862,27.9897032 11.0081362,27.8153885 11.3681641,27.6900624 C11.7281919,27.5647362 12.1429013,27.5020741 12.6123047,27.5020741 L12.6123047,27.5020741 Z M18.3955078,30.243285 C18.2861323,30.3070874 18.1767584,30.3389882 18.0673828,30.3389882 C17.9807938,30.3389882 17.8999027,30.3207592 17.824707,30.2843007 C17.7495113,30.2478421 17.6834313,30.1999911 17.6264648,30.140746 C17.5694984,30.0815009 17.5250653,30.0131422 17.4931641,29.9356679 C17.4612629,29.8581935 17.4453125,29.7784417 17.4453125,29.69641 C17.4453125,29.6052638 17.469238,29.5129795 17.5170898,29.4195546 C17.5649416,29.3261296 17.6435541,29.2475171 17.7529297,29.1837147 L20.2138672,27.7003163 C20.2867842,27.6593005 20.3642574,27.6296784 20.4462891,27.6114491 C20.5283207,27.5932198 20.6080725,27.5818267 20.6855469,27.5772694 C20.7949224,27.5772694 20.9008784,27.5954984 21.003418,27.6319569 C21.1059575,27.6684154 21.1971025,27.7242417 21.2768555,27.7994374 C21.3566085,27.8746331 21.4204099,27.9669173 21.4682617,28.0762929 C21.5161135,28.1856684 21.5400391,28.3155499 21.5400391,28.4659413 L21.546875,36.5391835 C21.546875,36.6850175 21.5206708,36.8114811 21.4682617,36.918578 C21.4158526,37.0256749 21.3474939,37.1145412 21.2631836,37.1851796 C21.1788733,37.2558179 21.0831711,37.3093656 20.9760742,37.3458241 C20.8689773,37.3822826 20.7607427,37.4005116 20.6513672,37.4005116 C20.5419916,37.4005116 20.433757,37.3822826 20.3266602,37.3458241 C20.2195633,37.3093656 20.1238611,37.2558179 20.0395508,37.1851796 C19.9552405,37.1145412 19.8880211,37.0256749 19.8378906,36.918578 C19.7877602,36.8114811 19.7626953,36.6850175 19.7626953,36.5391835 L19.7558594,29.3819569 L18.3955078,30.243285 Z M30.953125,28.0489491 C31.0716152,28.1036369 31.1570635,28.1788314 31.2094727,28.274535 C31.2618818,28.3702386 31.2880859,28.4704981 31.2880859,28.5753163 C31.2880859,28.6619053 31.2732749,28.7473536 31.2436523,28.8316639 C31.2140298,28.9159743 31.1718753,28.9911688 31.1171875,29.0572499 C31.0624997,29.1233309 30.997559,29.1768786 30.9223633,29.2178944 C30.8471676,29.2589102 30.7662765,29.2794179 30.6796875,29.2794179 C30.6204424,29.2794179 30.5657555,29.2703034 30.515625,29.2520741 C30.2239569,29.1472559 29.9379897,29.0618075 29.6577148,28.9957264 C29.37744,28.9296454 29.1188163,28.8966054 28.8818359,28.8966054 C28.5263654,28.8966054 28.217612,28.9444564 27.9555664,29.04016 C27.6935208,29.1358636 27.4679371,29.2657452 27.2788086,29.4298085 C27.08968,29.5938718 26.9335944,29.7898334 26.8105469,30.0176991 C26.6874994,30.2455648 26.5895186,30.4893775 26.5166016,30.7491444 C26.4436845,31.0089113 26.3935548,31.2823461 26.3662109,31.5694569 C26.3388671,31.8565677 26.3251953,32.1436742 26.3251953,32.430785 L26.3457031,32.437621 C26.459636,32.2143126 26.6020499,32.0206296 26.7729492,31.8565663 C26.9438485,31.692503 27.1329742,31.5580642 27.340332,31.453246 C27.5476898,31.3484277 27.7721342,31.2698152 28.0136719,31.2174061 C28.2552095,31.164997 28.5035795,31.1387929 28.7587891,31.1387929 C29.2236351,31.1387929 29.6463197,31.2117088 30.0268555,31.3575429 C30.4073912,31.5033769 30.7332343,31.7118709 31.0043945,31.9830311 C31.2755547,32.2541913 31.4840487,32.5811738 31.6298828,32.9639882 C31.7757169,33.3468026 31.8486328,33.7729051 31.8486328,34.2423085 C31.8486328,34.7253838 31.768881,35.1697153 31.609375,35.5753163 C31.449869,35.9809173 31.2197281,36.3306859 30.9189453,36.6246327 C30.6181626,36.9185795 30.2535829,37.1475811 29.8251953,37.3116444 C29.3968078,37.4757077 28.9137397,37.5577382 28.3759766,37.5577382 C27.9065732,37.5577382 27.4861672,37.5030512 27.1147461,37.3936757 C26.743325,37.2843001 26.4163426,37.1293538 26.1337891,36.9288319 C25.8512356,36.7283101 25.6108408,36.4879153 25.4125977,36.2076405 C25.2143545,35.9273657 25.0514329,35.6174729 24.9238281,35.277953 C24.7962233,34.9384331 24.7039391,34.5749927 24.6469727,34.187621 C24.5900062,33.8002492 24.5615234,33.396933 24.5615234,32.97766 C24.5615234,32.512814 24.5877276,32.05595 24.6401367,31.6070546 C24.6925458,31.1581591 24.7802728,30.7343352 24.9033203,30.3355702 C25.0263678,29.9368052 25.1927073,29.5676682 25.4023438,29.2281483 C25.6119802,28.8886284 25.8728826,28.5969646 26.1850586,28.3531483 C26.4972346,28.109332 26.8686502,27.9179277 27.2993164,27.7789296 C27.7299826,27.6399315 28.2278618,27.5704335 28.7929688,27.5704335 C29.1575539,27.5704335 29.5266908,27.6103094 29.9003906,27.6900624 C30.2740904,27.7698154 30.6249984,27.8894431 30.953125,28.0489491 L30.953125,28.0489491 Z M28.3144531,36.2999257 C28.6061213,36.2999257 28.8658843,36.2532139 29.09375,36.1597889 C29.3216157,36.066364 29.5141594,35.9319252 29.6713867,35.7564686 C29.8286141,35.581012 29.9471025,35.3713787 30.0268555,35.1275624 C30.1066085,34.8837461 30.1464844,34.6114506 30.1464844,34.3106679 C30.1464844,34.023557 30.1134443,33.7558188 30.0473633,33.5074452 C29.9812822,33.2590716 29.8787442,33.0414631 29.7397461,32.8546132 C29.600748,32.6677633 29.4230154,32.5207921 29.206543,32.4136952 C28.9900705,32.3065983 28.7337254,32.2530507 28.4375,32.2530507 C28.1230453,32.2530507 27.8450533,32.3043197 27.6035156,32.4068593 C27.361978,32.5093988 27.1591805,32.6529521 26.9951172,32.8375233 C26.8310539,33.0220946 26.7068689,33.243121 26.6225586,33.5006093 C26.5382483,33.7580975 26.4960938,34.0417861 26.4960938,34.3516835 C26.4960938,34.6296797 26.5405269,34.8871641 26.6293945,35.1241444 C26.7182622,35.3611248 26.8435864,35.5673402 27.0053711,35.7427968 C27.1671558,35.9182534 27.3585601,36.0549707 27.5795898,36.152953 C27.8006196,36.2509353 28.0455716,36.2999257 28.3144531,36.2999257 L28.3144531,36.2999257 Z" id="2016" fill="#FFFFFF"></path>
                </g>
            </g>
        </g>
    </g>
</svg>