<?xml version="1.0" encoding="UTF-8" standalone="no"?>
<svg width="82px" height="82px" viewBox="0 0 82 82" version="1.1" xmlns="http://www.w3.org/2000/svg" xmlns:xlink="http://www.w3.org/1999/xlink" xmlns:sketch="http://www.bohemiancoding.com/sketch/ns">
    <!-- Generator: Sketch 3.3.3 (12072) - http://www.bohemiancoding.com/sketch -->
    <title>mobile</title>
    <desc>Created with Sketch.</desc>
    <defs>
        <linearGradient x1="31.4582888%" y1="0%" x2="62.6016956%" y2="100%" id="linearGradient-1">
            <stop stop-color="#FFD36C" offset="0%"></stop>
            <stop stop-color="#FF9E00" offset="100%"></stop>
        </linearGradient>
    </defs>
    <g id="Page-1" stroke="none" stroke-width="1" fill="none" fill-rule="evenodd" sketch:type="MSPage">
        <g id="mobile" sketch:type="MSArtboardGroup" stroke="url(#linearGradient-1)" fill="#FFFFFF" fill-opacity="0">
            <g id="mini-phone" sketch:type="MSLayerGroup" transform="translate(18.000000, 1.000000)">
                <rect id="Rectangle-21" stroke-width="2" sketch:type="MSShapeGroup" x="0" y="0" width="44" height="80" rx="5"></rect>
                <path d="M22,76 C24.7614237,76 27,73.7614237 27,71 C27,68.2385763 24.7614237,66 22,66 C19.2385763,66 17,68.2385763 17,71 C17,73.7614237 19.2385763,76 22,76 Z M16,6.5 C16,6.22385763 16.2290006,6 16.5003473,6 L27.4996527,6 C27.7759869,6 28,6.23193359 28,6.5 C28,6.77614237 27.7709994,7 27.4996527,7 L16.5003473,7 C16.2240131,7 16,6.76806641 16,6.5 Z M3,10 L41,10 L41,64 L3,64 L3,10 Z" id="Oval-37" sketch:type="MSShapeGroup"></path>
            </g>
        </g>
    </g>
</svg>