<?xml version="1.0" encoding="UTF-8" standalone="no"?>
<svg width="82px" height="82px" viewBox="0 0 82 82" version="1.1" xmlns="http://www.w3.org/2000/svg" xmlns:xlink="http://www.w3.org/1999/xlink" xmlns:sketch="http://www.bohemiancoding.com/sketch/ns">
    <!-- Generator: Sketch 3.3.3 (12072) - http://www.bohemiancoding.com/sketch -->
    <title>whiteboard</title>
    <desc>Created with Sketch.</desc>
    <defs>
        <linearGradient x1="31.4582888%" y1="0%" x2="62.6016956%" y2="100%" id="linearGradient-1">
            <stop stop-color="#FFD36C" offset="0%"></stop>
            <stop stop-color="#FF9E00" offset="100%"></stop>
        </linearGradient>
        <linearGradient x1="0%" y1="0%" x2="100%" y2="82.966337%" id="linearGradient-2">
            <stop stop-color="#FFB42D" offset="0%"></stop>
            <stop stop-color="#FF9E00" offset="100%"></stop>
        </linearGradient>
    </defs>
    <g id="Page-1" stroke="none" stroke-width="1" fill="none" fill-rule="evenodd" sketch:type="MSPage">
        <g id="whiteboard" sketch:type="MSArtboardGroup">
            <g sketch:type="MSLayerGroup" transform="translate(1.000000, 11.000000)">
                <rect id="Rectangle-39" stroke="url(#linearGradient-1)" stroke-width="2" fill-opacity="0" fill="#FFFFFF" sketch:type="MSShapeGroup" x="0" y="0" width="80" height="50" rx="2"></rect>
                <rect id="Rectangle-39-Copy" stroke="url(#linearGradient-1)" fill-opacity="0" fill="#FFFFFF" sketch:type="MSShapeGroup" x="4" y="4" width="72" height="46" rx="1"></rect>
                <rect id="Rectangle-42" stroke="#FFA003" fill-opacity="0" fill="#FFFFFF" sketch:type="MSShapeGroup" x="45" y="43" width="19" height="6" rx="2"></rect>
                <g id="marker" transform="translate(69.000000, 39.500000) rotate(90.000000) translate(-69.000000, -39.500000) translate(58.500000, 36.500000)" stroke="#FFA107" sketch:type="MSShapeGroup">
                    <rect id="Rectangle-43" x="5" y="1" width="15" height="4"></rect>
                    <path d="M1,0 L6,1 L6,5 L1,6 L1,0 Z" id="Rectangle-43-Copy"></path>
                    <rect id="Rectangle-45" x="0" y="2" width="1" height="2"></rect>
                </g>
                <rect id="Rectangle-39-Copy-2" stroke="url(#linearGradient-2)" stroke-width="2" sketch:type="MSShapeGroup" x="0" y="48" width="80" height="10" rx="2"></rect>
                <g id="shapes" transform="translate(11.000000, 11.000000)" stroke="#FF9E00" sketch:type="MSShapeGroup">
                    <path d="M17.9966191,29.2915775 L17.6550243,29.6736496 L11.166743,23.8727463 L11.833257,23.1272537 L18.2472953,28.8617795 L22.9970707,20.7193074 C23.5509732,19.7697602 24.4485301,19.7689087 25.0029293,20.7193074 L29.9970707,29.2806926 C30.5509732,30.2302398 30.1029399,31 28.9941413,31 L19.0058587,31 C17.9022858,31 17.4519745,30.2369553 17.9966191,29.2915775 Z M18.2227843,7.62547231 L11.8173445,12.8863838 L11.1826555,12.1136162 L17.9801833,6.53067523 L18.0286047,6.58963087 C18.0096834,6.395646 18,6.19895384 18,6 C18,2.6862915 20.6862915,0 24,0 C27.3137085,0 30,2.6862915 30,6 C30,9.3137085 27.3137085,12 24,12 C21.2496195,12 18.9314673,10.1494105 18.2227843,7.62547231 L18.2227843,7.62547231 Z M0,14.0085302 C0,12.8992496 0.901950359,12 2.0085302,12 L9.9914698,12 C11.1007504,12 12,12.9019504 12,14.0085302 L12,21.9914698 C12,23.1007504 11.0980496,24 9.9914698,24 L2.0085302,24 C0.899249601,24 0,23.0980496 0,21.9914698 L0,14.0085302 Z" id="Rectangle-46"></path>
                </g>
            </g>
        </g>
    </g>
</svg>